# xmcd
#
# Track frame offsets:
#	150
#	18393
#	34278
#	51520
#	78865
#	99493
#	124550
#	155238
#	183315
#	221110
#
# Disc length: 3228
#
# Revision: 3
# Processed by: cddbd v1.5.1PL0 Copyright (c) Steve Scherf et al.
# Submitted via: dBpowerAMP V4.0
# Normalized: r2:TDELIM( - )
#
DISCID=870c9a0a
DTITLE=La Fania - Las estrellas de la Fania - Vol 1.
DYEAR=1900
DGENRE=blues
TTITLE0=Las tumbas - Ismael Rivera
TTITLE1=Cheche Cole - Willie Colón
TTITLE2=Cucala - Celia Cruz
TTITLE3=Sofrito - Monguito
TTITLE4=Richie's Jala Jala - Richie Ray/Bobby Cruz
TTITLE5=El pito - Cheo Feliciano
TTITLE6=Periódico de ayer - Héctor Lavoe
TTITLE7=El cantar de los piñales - El conde Rodríguez
TTITLE8=El Faisan - Johny Pacheco
TTITLE9=Hace tiempo - Ángel Canales
EXTD=
EXTT0=
EXTT1=
EXTT2=
EXTT3=
EXTT4=
EXTT5=
EXTT6=
EXTT7=
EXTT8=
EXTT9=
PLAYORDER=
